<?xml version="1.0" encoding="UTF-8"?>
<!DOCTYPE svg PUBLIC "-//W3C//DTD SVG 1.1//EN" "http://www.w3.org/Graphics/SVG/1.1/DTD/svg11.dtd">
<!-- Creator: CorelDRAW 2017 -->
<svg xmlns="http://www.w3.org/2000/svg" xml:space="preserve" width="297mm" height="420mm" version="1.1" style="shape-rendering:geometricPrecision; text-rendering:geometricPrecision; image-rendering:optimizeQuality; fill-rule:evenodd; clip-rule:evenodd"
viewBox="0 0 29700 42000"
 xmlns:xlink="http://www.w3.org/1999/xlink">
 <defs>
  <style type="text/css">
   <![CDATA[
    .fil3 {fill:#00CCFF}
    .fil0 {fill:#666666}
    .fil4 {fill:gray}
    .fil1 {fill:#99FF00}
    .fil2 {fill:#FF0066}
   ]]>
  </style>
 </defs>
 <g id="Layer_x0020_1">
  <metadata id="CorelCorpID_0Corel-Layer"/>
  <path class="fil0" d="M5434 30122c0,387 -310,700 -693,700 -383,0 -693,-314 -693,-700l0 -20160c0,-387 310,-700 693,-700 383,0 693,314 693,700l0 20160z"/>
  <path class="fil0" d="M6820 18928l0 -2641 0 -2396 0 -3929c0,-387 310,-700 693,-700 383,0 693,314 693,700l0 3929 0 1632c-715,985 -1203,2146 -1386,3404z"/>
  <path class="fil1" d="M8205 30122c0,387 -310,700 -693,700 -383,0 -693,-314 -693,-700l0 -4398 0 -1927 0 -2640c183,1260 670,2421 1386,3406l0 1161 0 4398z"/>
  <path class="fil0" d="M9587 14064l0 -699 0 -1028 0 -2375c0,-387 310,-700 693,-700 383,0 693,314 693,700l7 0 0 3199c-498,251 -964,554 -1393,903z"/>
  <path class="fil2" d="M10977 30122c0,387 -310,700 -693,700 -383,0 -693,-314 -693,-700l-7 0 0 -3403c0,-24 1,-49 4,-72l0 -624c428,347 893,650 1389,900l0 1498 0 1702z"/>
  <path class="fil2" d="M13752 27714l0 113 0 1133 0 1133 -4 0c0,403 -310,729 -693,729 -383,0 -693,-327 -693,-729l-4 0 0 -2266c0,-24 1,-49 4,-72l0 -295c448,125 912,211 1389,253z"/>
  <path class="fil0" d="M12363 12228l0 -1133 0 -1133c0,-387 310,-700 693,-700 383,0 693,314 693,700l7 0 0 2266 -4 0 0 144 -62 6c-455,44 -899,128 -1327,248l0 -398z"/>
  <path class="fil3" d="M16520 27460l0 367 0 1133 0 1133c0,403 -310,729 -693,729 -383,0 -693,-327 -693,-729l0 -1133 0 -1133 0 -114c476,-42 939,-128 1386,-253z"/>
  <path class="fil0" d="M15827 5828c383,0 693,314 693,700l0 4549 0 1151 0 397c-31,-9 -63,-17 -94,-26 -127,-34 -253,-64 -378,-91 -259,-55 -525,-97 -798,-126 -39,-4 -77,-8 -115,-11l0 -144 0 -1151 0 -4549c0,-387 310,-700 693,-700z"/>
  <path class="fil3" d="M19291 26025l0 694 0 1687 0 1687c0,403 -310,729 -693,729 -383,0 -693,-327 -693,-729l0 -1687 0 -1484c495,-250 959,-551 1386,-898z"/>
  <path class="fil0" d="M18598 5828c383,0 693,314 693,700l0 3491c-105,257 -162,539 -162,834 0,295 58,577 162,834l0 1679 0 694c-45,-37 -88,-71 -129,-103 -115,-89 -238,-179 -370,-269 -129,-88 -257,-171 -383,-247 -163,-98 -331,-191 -503,-278l0 -2716 0 -3919c0,-387 310,-700 693,-700z"/>
  <path class="fil3" d="M22063 21153l0 2644 0 2172 0 4124c0,403 -310,729 -693,729 -383,0 -693,-327 -693,-729l0 -4124 0 -1407c716,-986 1203,-2148 1386,-3409z"/>
  <path class="fil0" d="M22063 12953l0 554 0 2781 0 2651c-13,-92 -28,-184 -45,-275 -28,-153 -59,-302 -94,-447 -37,-150 -77,-297 -121,-440 -75,-242 -159,-477 -254,-703 -97,-231 -205,-457 -323,-677 -82,-152 -170,-303 -264,-452 -87,-138 -182,-279 -285,-420l0 -2018 0 -539c211,67 436,103 670,103 250,0 491,-42 716,-118z"/>
  <path class="fil0" d="M21370 5828c383,0 693,314 693,700l0 2225 -36 -12c-36,-12 -72,-22 -108,-32 -37,-10 -73,-18 -109,-26 -75,-16 -151,-28 -230,-36 -78,-8 -156,-12 -233,-12 -32,0 -68,1 -108,3 -36,2 -72,4 -108,8 -157,15 -308,47 -454,93l0 -2210c0,-387 310,-700 693,-700z"/>
  <path class="fil0" d="M24142 5828c383,0 693,314 693,700l0 23565c0,403 -310,729 -693,729 -383,0 -693,-327 -693,-729l0 -18529c49,-146 84,-298 102,-456 5,-41 8,-83 11,-127 3,-45 4,-88 4,-128 0,-64 -3,-131 -9,-199 -6,-67 -15,-133 -27,-198 -8,-44 -17,-87 -27,-129 -11,-43 -22,-86 -35,-127 -6,-20 -12,-39 -19,-58l0 -3614c0,-387 310,-700 693,-700z"/>
  <path class="fil4" d="M14441 26169c-1692,0 -3223,-686 -4332,-1794 -1109,-1109 -1794,-2640 -1794,-4332 0,-1582 601,-3024 1587,-4112 995,-1098 2383,-1833 3942,-1984 101,-10 200,-17 298,-22 111,-5 211,-8 299,-8 212,0 427,12 643,34 217,23 429,56 635,100 100,21 200,45 301,72 98,26 197,55 298,88 227,73 445,158 655,253 216,98 424,208 624,328 101,61 202,126 305,196 105,72 203,143 294,214 54,42 113,89 175,141 58,49 115,98 170,147 158,143 309,294 452,452 138,153 272,319 402,496 85,116 163,231 234,344 75,119 145,239 210,360 94,175 180,354 257,538 75,180 143,367 202,560 35,114 67,230 96,350 28,115 53,233 75,355 32,178 57,360 73,546 17,190 26,374 26,551 0,110 -4,227 -11,352 -7,122 -17,239 -30,352 -176,1535 -918,2897 -2013,3872 -1083,965 -2510,1551 -4073,1551z"/>
  <path class="fil4" d="M21347 11728c-242,0 -460,-98 -619,-256 -158,-158 -256,-377 -256,-619 0,-226 86,-432 227,-587 142,-157 340,-262 563,-283 14,-1 29,-2 43,-3 16,-1 30,-1 43,-1 30,0 61,2 92,5 31,3 61,8 91,14 14,3 29,6 43,10 14,4 28,8 43,13 32,10 64,23 94,36 31,14 61,30 89,47 14,9 29,18 44,28 15,10 29,20 42,31 8,6 16,13 25,20 8,7 16,14 24,21 23,20 44,42 65,65 20,22 39,46 57,71 12,17 23,33 33,49 11,17 21,34 30,51 13,25 26,51 37,77 11,26 20,52 29,80 5,16 10,33 14,50 4,16 8,33 11,51 5,25 8,51 10,78 2,27 4,53 4,79 0,16 -1,32 -2,50 -1,17 -2,34 -4,50 -25,219 -131,414 -288,553 -155,138 -359,222 -582,222z"/>
 </g>
</svg>
