<?xml version="1.0" encoding="UTF-8"?>
<!DOCTYPE svg PUBLIC "-//W3C//DTD SVG 1.1//EN" "http://www.w3.org/Graphics/SVG/1.1/DTD/svg11.dtd">
<!-- Creator: CorelDRAW 2017 -->
<svg xmlns="http://www.w3.org/2000/svg" xml:space="preserve" width="420mm" height="297mm" version="1.1" style="shape-rendering:geometricPrecision; text-rendering:geometricPrecision; image-rendering:optimizeQuality; fill-rule:evenodd; clip-rule:evenodd"
viewBox="0 0 42000 29700"
 xmlns:xlink="http://www.w3.org/1999/xlink">
 <defs>
  <style type="text/css">
   <![CDATA[
    .fil1 {fill:black}
    .fil0 {fill:black;fill-rule:nonzero}
   ]]>
  </style>
 </defs>
 <g id="Layer_x0020_1">
  <metadata id="CorelCorpID_0Corel-Layer"/>
  <path class="fil0" d="M20128 14071l1438 0c0,25 1,59 3,104 5,118 8,197 8,238 0,511 -147,909 -439,1191 -293,283 -706,425 -1238,425 -298,0 -564,-44 -797,-131 -233,-88 -438,-220 -613,-397 -172,-175 -304,-381 -396,-619 -92,-236 -138,-490 -138,-759 0,-275 47,-528 140,-760 94,-231 232,-436 416,-613 177,-174 385,-306 623,-397 238,-91 493,-136 764,-136 286,0 542,53 768,157 225,104 427,264 604,479l-431 325c-123,-142 -261,-248 -415,-318 -153,-69 -325,-104 -516,-104 -394,0 -715,126 -964,379 -249,253 -374,581 -374,984 0,411 125,744 374,999 249,256 572,384 970,384 337,0 603,-79 797,-236 194,-158 291,-371 291,-643l0 -52 -874 0 0 -498zm4241 1861l-539 0 0 -304c-96,135 -208,236 -336,302 -129,66 -275,99 -442,99 -332,0 -595,-114 -786,-342 -192,-227 -287,-539 -287,-935 0,-375 97,-679 293,-909 196,-231 451,-347 765,-347 192,0 357,40 493,120 136,80 236,195 299,345l0 -384 539 0 0 2354zm-524 -1185c0,-243 -57,-433 -170,-569 -114,-136 -272,-204 -475,-204 -204,0 -364,70 -481,210 -117,140 -175,335 -175,583 0,250 56,443 169,579 113,136 272,204 477,204 194,0 352,-74 473,-221 122,-147 183,-342 183,-582zm1292 1185l0 -3849 539 0 0 3849 -539 0zm1333 0l0 -3849 539 0 0 3849 -539 0zm3576 -1098l-1881 0c14,220 79,392 197,516 117,124 274,186 470,186 174,0 319,-36 434,-109 116,-73 217,-191 303,-353l453 253c-132,237 -296,413 -492,529 -195,116 -425,174 -687,174 -378,0 -678,-115 -902,-345 -223,-231 -335,-537 -335,-921 0,-370 115,-672 347,-910 231,-237 527,-356 890,-356 379,0 675,108 887,325 212,216 318,520 318,910l0 102zm-559 -361c-21,-169 -86,-297 -193,-386 -108,-89 -255,-133 -442,-133 -177,0 -320,43 -427,129 -107,86 -182,216 -225,390l1287 0zm1659 -519c58,-156 135,-271 230,-346 96,-75 214,-112 355,-112 76,0 151,9 225,27 74,18 147,45 218,79l-194 459c-47,-33 -97,-58 -150,-73 -54,-16 -114,-24 -181,-24 -180,0 -308,71 -386,214 -78,143 -117,384 -117,721l0 1032 -539 0 0 -2359 539 0 0 381zm3184 809c0,-219 -70,-404 -211,-556 -141,-152 -313,-227 -516,-227 -202,0 -374,75 -515,227 -142,152 -212,337 -212,556 0,219 70,404 212,556 142,152 314,227 515,227 202,0 374,-75 515,-227 142,-152 212,-337 212,-556zm-2024 -5c0,-172 33,-335 98,-487 65,-153 159,-290 281,-409 121,-118 260,-208 418,-271 158,-63 322,-94 494,-94 177,0 344,31 501,94 156,64 297,156 421,278 124,121 218,258 283,410 64,152 97,312 97,479 0,174 -32,337 -96,489 -64,153 -157,287 -280,405 -129,124 -272,218 -430,281 -157,64 -323,96 -497,96 -170,0 -335,-32 -492,-96 -158,-64 -297,-156 -420,-276 -124,-123 -218,-260 -283,-413 -64,-152 -97,-314 -97,-486zm3116 -2197c0,-91 34,-170 101,-236 67,-66 147,-99 240,-99 96,0 176,32 240,96 64,64 96,144 96,240 0,97 -32,177 -97,242 -65,65 -145,98 -239,98 -93,0 -173,-34 -240,-101 -67,-67 -101,-147 -101,-240zm71 3371l0 -2354 539 0 0 2354 -539 0zm3001 -1185c0,-243 -57,-433 -170,-569 -114,-136 -272,-204 -475,-204 -204,0 -364,70 -481,210 -117,140 -175,335 -175,583 0,250 56,443 169,579 113,136 272,204 477,204 195,0 353,-74 475,-220 120,-147 181,-341 181,-583zm-15 -2665l539 0 0 3849 -539 0 0 -304c-96,135 -208,236 -336,302 -129,66 -275,99 -442,99 -332,0 -595,-114 -786,-342 -192,-227 -287,-539 -287,-935 0,-375 97,-679 293,-909 196,-231 451,-347 765,-347 192,0 357,40 493,120 136,80 236,195 299,345l0 -1879z"/>
  <path class="fil1" d="M3358 21986c0,240 -192,434 -429,434 -237,0 -429,-194 -429,-434l0 -12492c0,-240 192,-434 429,-434 237,0 429,194 429,434l0 12492z"/>
  <path class="fil1" d="M4217 15050l0 -1636 0 -1484 0 -2435c0,-240 192,-434 429,-434 237,0 429,194 429,434l0 2435 0 1012c-443,610 -745,1329 -859,2109z"/>
  <path class="fil1" d="M5076 21986c0,240 -192,434 -429,434 -237,0 -429,-194 -429,-434l0 -2725 0 -1194 0 -1636c113,781 415,1500 859,2110l0 719 0 2725z"/>
  <path class="fil1" d="M5932 12037l0 -433 0 -637 0 -1472c0,-240 192,-434 429,-434 237,0 429,194 429,434l5 0 0 1982c-308,155 -598,343 -863,559z"/>
  <path class="fil1" d="M6793 21986c0,240 -192,434 -429,434 -237,0 -429,-194 -429,-434l-5 0 0 -2109c0,-15 1,-30 2,-45l0 -387c265,215 553,403 861,558l0 928 0 1054z"/>
  <path class="fil1" d="M8513 20494l0 70 0 702 0 702 -2 0c0,250 -192,452 -429,452 -237,0 -429,-202 -429,-452l-2 0 0 -1404c0,-15 1,-30 2,-45l0 -183c278,78 565,131 861,157z"/>
  <path class="fil1" d="M7652 10899l0 -702 0 -702c0,-240 192,-434 429,-434 237,0 429,194 429,434l5 0 0 1404 -2 0 0 89 -39 4c-282,27 -557,79 -822,154l0 -246z"/>
  <path class="fil1" d="M10228 20337l0 227 0 702 0 702c0,250 -192,452 -429,452 -237,0 -429,-202 -429,-452l0 -702 0 -702 0 -71c295,-26 582,-79 859,-157z"/>
  <path class="fil1" d="M9798 6933c237,0 429,194 429,434l0 2819 0 713 0 246c-19,-5 -39,-11 -58,-16 -79,-21 -157,-40 -234,-56 -160,-34 -326,-60 -495,-78 -24,-2 -48,-5 -72,-7l0 -89 0 -713 0 -2819c0,-240 192,-434 429,-434z"/>
  <path class="fil1" d="M11945 19448l0 430 0 1045 0 1045c0,250 -192,452 -429,452 -237,0 -429,-202 -429,-452l0 -1045 0 -919c307,-155 594,-342 859,-556z"/>
  <path class="fil1" d="M11516 6933c237,0 429,194 429,434l0 2163c-65,160 -101,334 -101,517 0,183 36,357 101,517l0 1040 0 430c-28,-23 -55,-44 -80,-64 -71,-55 -148,-111 -229,-167 -80,-55 -159,-106 -237,-153 -101,-61 -205,-118 -312,-172l0 -1683 0 -2428c0,-240 192,-434 429,-434z"/>
  <path class="fil1" d="M13662 16429l0 1639 0 1346 0 2555c0,250 -192,452 -429,452 -237,0 -429,-202 -429,-452l0 -2555 0 -872c443,-611 746,-1331 859,-2113z"/>
  <path class="fil1" d="M13662 11348l0 343 0 1723 0 1643c-8,-57 -17,-114 -28,-170 -17,-95 -37,-187 -58,-277 -23,-93 -48,-184 -75,-273 -46,-150 -99,-296 -157,-436 -60,-143 -127,-283 -200,-419 -51,-94 -105,-187 -164,-280 -54,-86 -113,-173 -177,-260l0 -1250 0 -334c131,41 270,64 415,64 155,0 304,-26 443,-73z"/>
  <path class="fil1" d="M13233 6933c237,0 429,194 429,434l0 1379 -22 -7c-23,-7 -45,-14 -67,-20 -23,-6 -45,-11 -68,-16 -46,-10 -94,-17 -142,-22 -49,-5 -97,-8 -144,-8 -20,0 -42,1 -67,2 -22,1 -44,3 -67,5 -97,9 -191,29 -281,57l0 -1369c0,-240 192,-434 429,-434z"/>
  <path class="fil1" d="M14950 6933c237,0 429,194 429,434l0 14601c0,250 -192,452 -429,452 -237,0 -429,-202 -429,-452l0 -11481c31,-90 52,-185 63,-283 3,-25 5,-52 7,-79 2,-28 2,-54 2,-79 0,-40 -2,-81 -6,-124 -4,-42 -9,-82 -16,-122 -5,-27 -11,-54 -17,-80 -7,-27 -14,-53 -22,-79 -4,-12 -8,-24 -12,-36l0 -2239c0,-240 192,-434 429,-434z"/>
  <path class="fil1" d="M8940 19537c-1048,0 -1997,-425 -2684,-1112 -687,-687 -1112,-1636 -1112,-2684 0,-980 372,-1874 983,-2548 617,-680 1477,-1136 2442,-1230 62,-6 124,-11 185,-14 69,-3 131,-5 186,-5 131,0 264,7 398,21 135,14 266,35 393,62 62,13 124,28 186,45 61,16 122,34 185,54 141,45 276,98 406,157 134,61 263,129 387,203 62,38 125,78 189,122 65,44 126,89 182,133 34,26 70,55 108,88 36,30 71,61 105,91 98,88 192,182 280,280 86,95 169,198 249,307 52,72 101,143 145,213 47,74 90,148 130,223 58,108 111,220 159,334 47,112 89,227 125,347 22,70 42,143 60,217 17,71 33,145 46,220 20,111 35,223 46,338 11,118 16,232 16,341 0,68 -2,141 -7,218 -4,76 -10,148 -18,218 -109,951 -569,1795 -1247,2399 -671,598 -1555,961 -2524,961z"/>
  <path class="fil1" d="M13219 10589c-150,0 -285,-61 -383,-159 -98,-98 -159,-234 -159,-383 0,-140 53,-268 140,-364 88,-97 211,-162 349,-176 9,-1 18,-2 26,-2 10,0 19,-1 27,-1 19,0 38,1 57,3 19,2 38,5 56,9 9,2 18,4 27,6 9,2 17,5 26,8 20,6 39,14 58,22 19,9 38,18 55,29 9,5 18,11 27,17 9,6 18,13 26,19 5,4 10,8 15,13 5,4 10,9 15,13 14,13 27,26 40,40 12,14 24,28 36,44 7,10 14,20 21,30 7,11 13,21 19,32 8,15 16,31 23,48 7,16 13,32 18,50 3,10 6,20 9,31 2,10 5,21 7,31 3,16 5,32 7,48 2,17 2,33 2,49 0,10 0,20 -1,31 -1,11 -1,21 -3,31 -16,136 -81,256 -178,343 -96,85 -222,137 -361,137z"/>
 </g>
</svg>
