<?xml version="1.0" encoding="UTF-8"?>
<!DOCTYPE svg PUBLIC "-//W3C//DTD SVG 1.1//EN" "http://www.w3.org/Graphics/SVG/1.1/DTD/svg11.dtd">
<!-- Creator: CorelDRAW 2017 -->
<svg xmlns="http://www.w3.org/2000/svg" xml:space="preserve" width="297mm" height="420mm" version="1.1" style="shape-rendering:geometricPrecision; text-rendering:geometricPrecision; image-rendering:optimizeQuality; fill-rule:evenodd; clip-rule:evenodd"
viewBox="0 0 29700 42000"
 xmlns:xlink="http://www.w3.org/1999/xlink">
 <defs>
  <style type="text/css">
   <![CDATA[
    .fil0 {fill:white}
    .fil1 {fill:white;fill-rule:nonzero}
   ]]>
  </style>
 </defs>
 <g id="Layer_x0020_1">
  <metadata id="CorelCorpID_0Corel-Layer"/>
  <path class="fil0" d="M5434 30122c0,387 -310,700 -693,700 -383,0 -693,-314 -693,-700l0 -20160c0,-387 310,-700 693,-700 383,0 693,314 693,700l0 20160z"/>
  <path class="fil0" d="M6820 18928l0 -2641 0 -2396 0 -3929c0,-387 310,-700 693,-700 383,0 693,314 693,700l0 3929 0 1632c-715,985 -1203,2146 -1386,3404z"/>
  <path class="fil0" d="M8205 30122c0,387 -310,700 -693,700 -383,0 -693,-314 -693,-700l0 -4398 0 -1927 0 -2640c183,1260 670,2421 1386,3406l0 1161 0 4398z"/>
  <path class="fil0" d="M9587 14064l0 -699 0 -1028 0 -2375c0,-387 310,-700 693,-700 383,0 693,314 693,700l7 0 0 3199c-498,251 -964,554 -1393,903z"/>
  <path class="fil0" d="M10977 30122c0,387 -310,700 -693,700 -383,0 -693,-314 -693,-700l-7 0 0 -3403c0,-24 1,-49 4,-72l0 -624c428,347 893,650 1389,900l0 1498 0 1702z"/>
  <path class="fil0" d="M13752 27714l0 113 0 1133 0 1133 -4 0c0,403 -310,729 -693,729 -383,0 -693,-327 -693,-729l-4 0 0 -2266c0,-24 1,-49 4,-72l0 -295c448,125 912,211 1389,253z"/>
  <path class="fil0" d="M12363 12228l0 -1133 0 -1133c0,-387 310,-700 693,-700 383,0 693,314 693,700l7 0 0 2266 -4 0 0 144 -62 6c-455,44 -899,128 -1327,248l0 -398z"/>
  <path class="fil0" d="M16520 27460l0 367 0 1133 0 1133c0,403 -310,729 -693,729 -383,0 -693,-327 -693,-729l0 -1133 0 -1133 0 -114c476,-42 939,-128 1386,-253z"/>
  <path class="fil0" d="M15827 5828c383,0 693,314 693,700l0 4549 0 1151 0 397c-31,-9 -63,-17 -94,-26 -127,-34 -253,-64 -378,-91 -259,-55 -525,-97 -798,-126 -39,-4 -77,-8 -115,-11l0 -144 0 -1151 0 -4549c0,-387 310,-700 693,-700z"/>
  <path class="fil0" d="M19291 26025l0 694 0 1687 0 1687c0,403 -310,729 -693,729 -383,0 -693,-327 -693,-729l0 -1687 0 -1484c495,-250 959,-551 1386,-898z"/>
  <path class="fil0" d="M18598 5828c383,0 693,314 693,700l0 3491c-105,257 -162,539 -162,834 0,295 58,577 162,834l0 1679 0 694c-45,-37 -88,-71 -129,-103 -115,-89 -238,-179 -370,-269 -129,-88 -257,-171 -383,-247 -163,-98 -331,-191 -503,-278l0 -2716 0 -3919c0,-387 310,-700 693,-700z"/>
  <path class="fil0" d="M22063 21153l0 2644 0 2172 0 4124c0,403 -310,729 -693,729 -383,0 -693,-327 -693,-729l0 -4124 0 -1407c716,-986 1203,-2148 1386,-3409z"/>
  <path class="fil0" d="M22063 12953l0 554 0 2781 0 2651c-13,-92 -28,-184 -45,-275 -28,-153 -59,-302 -94,-447 -37,-150 -77,-297 -121,-440 -75,-242 -159,-477 -254,-703 -97,-231 -205,-457 -323,-677 -82,-152 -170,-303 -264,-452 -87,-138 -182,-279 -285,-420l0 -2018 0 -539c211,67 436,103 670,103 250,0 491,-42 716,-118z"/>
  <path class="fil0" d="M21370 5828c383,0 693,314 693,700l0 2225 -36 -12c-36,-12 -72,-22 -108,-32 -37,-10 -73,-18 -109,-26 -75,-16 -151,-28 -230,-36 -78,-8 -156,-12 -233,-12 -32,0 -68,1 -108,3 -36,2 -72,4 -108,8 -157,15 -308,47 -454,93l0 -2210c0,-387 310,-700 693,-700z"/>
  <path class="fil0" d="M24142 5828c383,0 693,314 693,700l0 23565c0,403 -310,729 -693,729 -383,0 -693,-327 -693,-729l0 -18529c49,-146 84,-298 102,-456 5,-41 8,-83 11,-127 3,-45 4,-88 4,-128 0,-64 -3,-131 -9,-199 -6,-67 -15,-133 -27,-198 -8,-44 -17,-87 -27,-129 -11,-43 -22,-86 -35,-127 -6,-20 -12,-39 -19,-58l0 -3614c0,-387 310,-700 693,-700z"/>
  <path class="fil0" d="M14441 26169c-1692,0 -3223,-686 -4332,-1794 -1109,-1109 -1794,-2640 -1794,-4332 0,-1582 601,-3024 1587,-4112 995,-1098 2383,-1833 3942,-1984 101,-10 200,-17 298,-22 111,-5 211,-8 299,-8 212,0 427,12 643,34 217,23 429,56 635,100 100,21 200,45 301,72 98,26 197,55 298,88 227,73 445,158 655,253 216,98 424,208 624,328 101,61 202,126 305,196 105,72 203,143 294,214 54,42 113,89 175,141 58,49 115,98 170,147 158,143 309,294 452,452 138,153 272,319 402,496 85,116 163,231 234,344 75,119 145,239 210,360 94,175 180,354 257,538 75,180 143,367 202,560 35,114 67,230 96,350 28,115 53,233 75,355 32,178 57,360 73,546 17,190 26,374 26,551 0,110 -4,227 -11,352 -7,122 -17,239 -30,352 -176,1535 -918,2897 -2013,3872 -1083,965 -2510,1551 -4073,1551z"/>
  <path class="fil0" d="M21347 11728c-242,0 -460,-98 -619,-256 -158,-158 -256,-377 -256,-619 0,-226 86,-432 227,-587 142,-157 340,-262 563,-283 14,-1 29,-2 43,-3 16,-1 30,-1 43,-1 30,0 61,2 92,5 31,3 61,8 91,14 14,3 29,6 43,10 14,4 28,8 43,13 32,10 64,23 94,36 31,14 61,30 89,47 14,9 29,18 44,28 15,10 29,20 42,31 8,6 16,13 25,20 8,7 16,14 24,21 23,20 44,42 65,65 20,22 39,46 57,71 12,17 23,33 33,49 11,17 21,34 30,51 13,25 26,51 37,77 11,26 20,52 29,80 5,16 10,33 14,50 4,16 8,33 11,51 5,25 8,51 10,78 2,27 4,53 4,79 0,16 -1,32 -2,50 -1,17 -2,34 -4,50 -25,219 -131,414 -288,553 -155,138 -359,222 -582,222z"/>
  <path class="fil1" d="M5493 37140l1540 0c0,26 1,64 3,112 5,126 8,210 8,255 0,547 -157,973 -470,1275 -314,303 -756,455 -1326,455 -319,0 -603,-47 -853,-141 -250,-94 -469,-236 -656,-426 -184,-188 -326,-408 -424,-662 -99,-253 -148,-524 -148,-813 0,-294 50,-565 150,-814 101,-248 249,-466 445,-656 190,-186 412,-328 667,-426 255,-97 528,-146 818,-146 306,0 581,56 822,168 241,112 457,282 647,513l-461 348c-132,-152 -279,-266 -445,-340 -164,-74 -348,-112 -553,-112 -422,0 -766,135 -1033,406 -267,270 -400,622 -400,1053 0,440 133,797 400,1070 267,274 612,411 1038,411 361,0 646,-84 853,-252 208,-169 311,-397 311,-689l0 -55 -935 0 0 -533zm4540 1992l-577 0 0 -326c-103,144 -223,252 -360,323 -138,71 -295,106 -473,106 -356,0 -637,-122 -841,-366 -205,-243 -308,-577 -308,-1001 0,-402 104,-727 314,-974 210,-248 483,-371 819,-371 206,0 382,43 528,129 146,85 253,209 320,369l0 -411 577 0 0 2520zm-561 -1268c0,-260 -61,-464 -182,-609 -122,-146 -291,-219 -509,-219 -219,0 -390,75 -514,225 -125,150 -188,358 -188,624 0,268 60,475 181,620 121,146 291,219 511,219 208,0 377,-79 506,-237 131,-158 196,-366 196,-623zm1383 1268l0 -4121 577 0 0 4121 -577 0zm1427 0l0 -4121 577 0 0 4121 -577 0zm3828 -1176l-2014 0c15,236 84,420 210,553 125,132 293,199 503,199 186,0 341,-39 465,-117 124,-78 232,-204 325,-378l485 271c-142,254 -317,442 -526,566 -209,124 -455,186 -736,186 -405,0 -726,-123 -965,-369 -239,-247 -358,-575 -358,-986 0,-396 123,-719 371,-974 247,-254 564,-381 953,-381 406,0 722,116 949,348 227,231 340,557 340,974l0 109zm-599 -387c-23,-181 -92,-318 -207,-413 -115,-95 -273,-142 -473,-142 -190,0 -342,46 -457,138 -114,93 -195,231 -241,417l1378 0zm1776 -555c63,-167 144,-290 246,-370 103,-80 229,-120 380,-120 82,0 162,10 240,29 79,19 157,48 233,84l-208 491c-50,-35 -103,-62 -161,-78 -58,-17 -122,-25 -193,-25 -192,0 -329,76 -413,230 -83,153 -125,411 -125,772l0 1105 -577 0 0 -2526 577 0 0 408zm3409 866c0,-234 -75,-433 -226,-595 -151,-162 -335,-243 -553,-243 -216,0 -400,81 -552,243 -152,162 -227,361 -227,595 0,234 75,433 227,595 152,162 336,243 552,243 216,0 400,-81 552,-243 152,-162 227,-361 227,-595zm-2167 -5c0,-184 35,-358 105,-522 70,-164 171,-310 301,-437 130,-126 279,-222 447,-290 169,-67 345,-101 529,-101 190,0 368,34 536,101 167,68 318,167 451,298 132,130 233,276 303,439 69,162 103,334 103,513 0,186 -34,361 -103,524 -68,163 -168,308 -299,434 -138,132 -291,233 -460,301 -168,68 -346,103 -532,103 -182,0 -358,-34 -526,-103 -169,-68 -318,-167 -450,-296 -132,-132 -233,-279 -303,-442 -69,-162 -103,-337 -103,-521zm3336 -2352c0,-97 36,-181 108,-253 72,-71 157,-106 257,-106 103,0 189,34 257,103 68,68 103,154 103,257 0,103 -34,190 -103,260 -70,70 -155,105 -256,105 -100,0 -185,-36 -257,-108 -72,-72 -108,-157 -108,-257zm76 3609l0 -2520 577 0 0 2520 -577 0zm3213 -1268c0,-260 -61,-464 -182,-609 -122,-146 -291,-219 -509,-219 -219,0 -390,75 -514,225 -125,150 -188,358 -188,624 0,268 60,475 181,620 121,146 291,219 511,219 209,0 378,-79 508,-236 129,-157 194,-365 194,-624zm-16 -2853l577 0 0 4121 -577 0 0 -326c-103,144 -223,252 -360,323 -138,71 -295,106 -473,106 -356,0 -637,-122 -841,-366 -205,-243 -308,-577 -308,-1001 0,-402 104,-727 314,-974 210,-248 483,-371 819,-371 206,0 382,43 528,129 146,85 253,209 320,369l0 -2011z"/>
 </g>
</svg>
